<?xml version="1.0" encoding="utf-8"?>
<!-- Generator: Adobe Illustrator 24.0.1, SVG Export Plug-In . SVG Version: 6.00 Build 0)  -->
<svg version="1.1" id="_x33_0" xmlns="http://www.w3.org/2000/svg" xmlns:xlink="http://www.w3.org/1999/xlink" x="0px" y="0px"
	 viewBox="0 0 512 512" style="enable-background:new 0 0 512 512;" xml:space="preserve">
<style type="text/css">
	.st0{fill:#FFFFFF;}
</style>
<g>
	<path class="st0" d="M488,216c8.8,0,16-7.2,16-16v-80c0-8.8-7.2-16-16-16H301.2C278.4,46.4,222.4,8,160,8C76.2,8,8,76.2,8,160
		c0,70.7,48.7,130.2,114.2,147c-1.4,4.1-2.2,8.5-2.2,13v160c0,13.2,10.8,24,24,24h32c13.2,0,24-10.8,24-24V320
		c0-4.4-0.8-8.8-2.2-12.9c18-4.6,35-12.5,50.2-23.3V344c0,8.8,7.2,16,16,16h224c8.8,0,16-7.2,16-16v-80c0-8.8-7.2-16-16-16H283.8
		c7.1-9.9,12.8-20.6,17.3-32H488z M200,216h47.6c-19,29.5-52,48-87.6,48c-57.3,0-104-46.7-104-104S102.7,56,160,56
		c35.5,0,68.6,18.5,87.6,48H200c-8.8,0-16,7.2-16,16v80C184,208.8,191.2,216,200,216z M200,200v-80h96v80H200z M488,200H312v-80h176
		L488,200z M176,488h-32c-4.4,0-8-3.6-8-8V360h48v120C184,484.4,180.4,488,176,488z M184,320v24h-48v-24c0-3.4,0.8-6.7,2.1-9.8
		c7.2,1,14.4,1.8,21.9,1.8c7.4,0,14.7-0.7,21.9-1.7C183.2,313.3,184,316.6,184,320z M264,264h112v80H264V264z M488,344h-96v-80h96
		V344z M263.5,248c-8.4,0.3-15.2,7-15.4,15.5C223.5,284.4,192.4,296,160,296c-75,0-136-61-136-136S85,24,160,24
		c53.7,0,102.1,31.7,123.9,80h-17.9C245.4,65,204.4,40,160,40C93.8,40,40,93.8,40,160s53.8,120,120,120c44.4,0,85.4-25,106.1-64
		h17.8C278.7,227.6,271.8,238.3,263.5,248z"/>
	<path class="st0" d="M456,152h16v16h-16V152z"/>
	<path class="st0" d="M424,152h16v16h-16V152z"/>
	<path class="st0" d="M392,152h16v16h-16V152z"/>
	<path class="st0" d="M360,152h16v16h-16V152z"/>
	<path class="st0" d="M328,152h16v16h-16V152z"/>
	<path class="st0" d="M274.3,130.3L232,172.7l-10.3-10.3l-11.3,11.3l21.7,21.7l53.7-53.7L274.3,130.3z"/>
	<path class="st0" d="M456,392H232c-8.8,0-16,7.2-16,16v80c0,8.8,7.2,16,16,16h224c8.8,0,16-7.2,16-16v-80
		C472,399.2,464.8,392,456,392z M232,408h96v80h-96V408z M344,488v-80h112l0,80H344z"/>
	<path class="st0" d="M424,440h16v16h-16V440z"/>
	<path class="st0" d="M392,440h16v16h-16V440z"/>
	<path class="st0" d="M360,440h16v16h-16V440z"/>
	<path class="st0" d="M280,296h16v16h-16V296z"/>
	<path class="st0" d="M312,296h16v16h-16V296z"/>
	<path class="st0" d="M344,296h16v16h-16V296z"/>
	<path class="st0" d="M306.3,418.3L264,460.7l-10.3-10.3l-11.3,11.3l21.7,21.7l53.7-53.7L306.3,418.3z"/>
	<path class="st0" d="M410.3,322.3l11.3,11.3l18.3-18.3l18.3,18.3l11.3-11.3L451.3,304l18.3-18.3l-11.3-11.3L440,292.7l-18.3-18.3
		l-11.3,11.3l18.3,18.3L410.3,322.3z"/>
</g>
</svg>
